# xmcd
#
# Track frame offsets:
#	150
#	27712
#	74325
#	101100
#	116550
#	172475
#	200475
#	226275
#	247200
#	261787
#	285450
#	315900
#
# Disc length: 4388
#
# Revision: 1
# Processed by: cddbd v1.5.1PL0 Copyright (c) Steve Scherf et al.
# Submitted via: CDex 1.51
# Normalized: r0:DSETVAR1
#
DISCID=b711220c
DTITLE=Various Artist - Unplugged jazz, CD 2
DYEAR=1900
DGENRE=Jazz
TTITLE0=Miles Davis - Salt peanuts
TTITLE1=John Coltrane with Frank Wess - Wheeöin' (Take 1)
TTITLE2=Dave Brubeck  quartet - For all we know
TTITLE3=Duke Ellington - Take the "A" train
TTITLE4=The Cannonball Adderley quintet - This here
TTITLE5=Eddie "Lockjaw" Davis - Trane whistle
TTITLE6=The moder jazz qaurtet - Django
TTITLE7=Charlie Parker - Strapple from the Apple
TTITLE8=Barney Kessel - On a slow boat to China
TTITLE9=Howard Rumsey's lighthouse All-stars - All the things you are
TTITLE10=Charlie Mingus - Jump Monk
TTITLE11=Ella Fitzgerald and Duke Ellington - Satin doll
EXTD=
EXTT0=
EXTT1=
EXTT2=
EXTT3=
EXTT4=
EXTT5=
EXTT6=
EXTT7=
EXTT8=
EXTT9=
EXTT10=
EXTT11=
PLAYORDER=
